<svg xmlns="http://www.w3.org/2000/svg" width="1024" height="819" viewBox="0 0 1024 819">
<path fill="url(#a)" d="M512 819.2c-73.4 0-144.3-17.6-210.8-52.2-61.9-32.1-115.1-80.5-153.9-140C72.5 502 36.3 416.7 36.3 321.1c0-43 14.7-82.9 43.8-118.8 33-40.8 84.1-70.8 142.3-83.6a256.2 256.2 0 0 1 187-83.7H512c140.7 0 256.4 115.6 256.4 256.4 0 26.6-4.1 52.8-12.2 78.1a257 257 0 0 1 142.2 83.6c29.1 35.9 43.8 75.8 43.8 118.8 0 95.6-36.2 180.9-111 245.9-38.8 33.7-92 82.1-153.9 140-66.5 34.6-137.4 52.2-210.8 52.2zM409.6 44.8c-28.7 0-56.3 6-81.8 17.8a246 246 0 0 0-142.2 83.6 233.6 233.6 0 0 0-43.8 118.8c0 91.7 34.6 173.3 106.3 235.3 37.1 32.2 88.1 78.5 147.2 133.7a496.2 496.2 0 0 0 201.7 131.2v-11a243 243 0 0 0 23.9-97.4C641.1 593 720.5 499.2 755.2 380c8.1-27.7 12.2-56.1 12.2-84.8C767.4 154.1 651.8 44.8 512 44.8h-102.4z"/>
<path fill="url(#b)" d="M512 0c73.4 0 144.3 17.6 210.8 52.2 61.9 32.1 115.1 80.5 153.9 140 74.8 125 111 245.9 111 345.9a256 256 0 0 1-187 83.7h-102.4c-140.7 0-256.4-115.6-256.4-256.4 0-26.6 4.1-52.8 12.2-78.1a257 257 0 0 1-142.2-83.6c-29.1-35.9-43.8-75.8-43.8-118.8 0-95.6 36.2-180.9 111-245.9a256 256 0 0 1 187-83.7h102.4c1.2 0 2.5 0 3.8.1v.1zM614.4 774.4a246 246 0 0 0 142.2-83.6c29.1-35.9 43.8-75.8 43.8-118.8 0-91.7-34.6-173.3-106.3-235.3-37.1-32.2-88.1-78.5-147.2-133.7a496.2 496.2 0 0 0-201.7-131.2v11a243 243 0 0 0-23.9 97.4C382.9 226.2 303.5 320 268.8 439.2a246 246 0 0 0-12.2 84.8C256.6 665.1 372.2 774.4 512 774.4h102.4z"/>
<path fill="#fff" d="M260.8 131c26 18.2 56 32 88 40V131h-88zM476.2 131l24.6 24.6c18 18 31.6 40.8 39.4 66.4l24.4 24.4V131H476.2zM218.4 207.8c34 6 66 18 94 36v18c-28-18-60-30-94-36v-18zM312.4 243.8c-28-18-60-30-94-36l-18 18c34 6 66 18 94 36l18-18zM414.8 243.8l24.6 24.6c26.6 26.6 40.2 59.8 40.2 96.6s-13.6 70-40.2 96.6l-24.6 24.6-18-18 24.6-24.6c19.6-19.6 30.6-45.8 30.6-73.6s-11-54-30.6-73.6l-24.6-24.6 18-18zM193.8 283.4c26.6 26.6 40.2 59.8 40.2 96.6s-13.6 70-40.2 96.6l-24.6 24.6-18-18 24.6-24.6c19.6-19.6 30.6-45.8 30.6-73.6s-11-54-30.6-73.6l-24.6-24.6 18-18 24.6 24.6zM288.6 414.8c18.2 26 32 56 40 88H218.4c8-32 21.8-62 40-88l30.2 14.8zM402.6 414.8l24.6 24.6c26.6 26.6 40.2 59.8 40.2 96.6s-13.6 70-40.2 96.6L402.6 657.2V414.8zM243.8 488c32-8 62-21.8 88-40l14.8 30.2-88 40H243.8zM218.4 532c26 18.2 56 32 88 40v18c-32-8-62-21.8-88-40l-18-18zM312.4 572c-28-18-60-30-94-36l-18 18c34 6 66 18 94 36v-18zM243.8 616l18 18c34 6 66 18 94 36v18c-32-8-62-21.8-88-40l-18-18zM288.6 690l18 18c34 6 66 18 94 36v18c-32-8-62-21.8-88-40l-18-18zM312.4 729.8v18c-34 6-66 18-94 36v18c32-8 62-21.8 88-40l18-18z"/>
<path fill="#fff" d="M682.4 207.8a230.4 230.4 0 0 1 123 68c29.1 35.9 43.8 75.8 43.8 118.8 0 91.7-34.6 173.3-106.3 235.3L614.4 712c-59.1-55.2-110.1-101.5-147.2-133.7-71.7-62-106.3-143.6-106.3-235.3C360.9 299.1 406 256.8 493.6 211l14.8 30.2a246 246 0 0 0-142.2 83.6c-29.1 35.9-43.8 75.8-43.8 118.8 0 91.7 34.6 173.3 106.3 235.3L614.4 712c59.1-55.2 110.1-101.5 147.2-133.7a496.2 496.2 0 0 0 201.7-131.2l18 18a496.2 496.2 0 0 1-201.7 131.2C720.5 593 641.1 499.2 606.4 380a246 246 0 0 1-12.2-84.8C594.2 243.8 625 218 682.4 207.8z"/>
<defs>
<linearGradient id="a" x1="512" y1="0" x2="512" y2="819.2" gradientUnits="userSpaceOnUse">
<stop stop-color="#fff" stop-opacity=".1"/>
<stop offset="1" stop-color="#fff"/>
</linearGradient>
<linearGradient id="b" x1="512" y1="0" x2="512" y2="819.2" gradientUnits="userSpaceOnUse">
<stop stop-color="#fd7e14"/>
<stop offset="1" stop-color="#f57c00"/>
</linearGradient>
</defs>
</svg>